<?xml version="1.0" encoding="UTF-8"?>
<svg id="Layer_1" data-name="Layer 1" xmlns="http://www.w3.org/2000/svg" version="1.1" viewBox="0 0 214.6 54.4">
  <defs>
    <style>
      .cls-1 {
        fill: #fff;
        stroke-width: 0px;
      }
    </style>
  </defs>
  <path class="cls-1" d="M54.1,17v-.5c0,0-.3-.3-.3-.3-1.1-.9-2.4-1.6-3.7-2.1-2.4-1-5-1.4-7.6-1.2.3-4-.9-8-3.3-11.2l-.3-.4h-.5c-3.9.6-7.6,2.6-10.2,5.6-1.7-1.9-3.8-3.4-6.1-4.4-1.3-.5-2.7-.9-4.1-1.1h-.5c0,0-.3.3-.3.3-2.5,3.2-3.6,7.3-3.3,11.3-3.9-.2-7.9.9-11,3.3l-.4.3v.5c.6,3.9,2.5,7.5,5.5,10.1-3,2.6-5,6.3-5.5,10.2v.5c0,0,.3.3.3.3,3.2,2.5,7.3,3.6,11.2,3.3-.3,4,.9,8,3.3,11.2l.3.4h.5c4-.6,7.6-2.6,10.2-5.6,2.6,3,6.3,5,10.2,5.5h.5c0,0,.3-.3.3-.3,2.5-3.2,3.6-7.3,3.3-11.3,3.9.2,7.9-.9,11-3.3l.4-.3v-.5c-.6-3.9-2.5-7.5-5.5-10.1,3-2.6,5-6.3,5.5-10.2ZM52.4,17.3c-.6,3.5-2.4,6.7-5.1,8.9,0,0-.1,0-.2-.1-.1,0-.3-.2-.4-.3-.2-.1-.4-.2-.5-.3-.1,0-.2-.1-.3-.2-.2-.1-.4-.2-.6-.3-.1,0-.2-.1-.3-.2-.2,0-.4-.2-.6-.3,0,0-.2,0-.2-.1,0,0,0,0-.1,0,0,0-.1,0-.2,0,0,0,0,0,0,0,0,0,0-.1,0-.2.1-.2.2-.5.3-.7,0-.1,0-.2.1-.3,0-.2.1-.5.2-.7,0-.1,0-.2,0-.3,0-.3.1-.7.2-1v-.5c0,0-.3-.3-.3-.3-.3-.3-.7-.5-1.1-.7-.1,0-.2-.1-.4-.2-.3-.1-.5-.3-.8-.4,0,0-.1,0-.2,0-.2,0-.3-.1-.5-.2-.1,0-.2,0-.3-.1-.3-.1-.7-.2-1-.3-1.2-.3-2.5-.3-3.7-.1-.9.1-1.7.4-2.5.7-.3.1-.7.3-1,.5,0,0,0,0,0,0,0,0,.1-.1.2-.2.3-.3.6-.6.9-.9.1-.1.2-.2.4-.3.3-.2.5-.4.8-.6.1,0,.2-.2.4-.3.4-.3.8-.5,1.3-.8h0c.4-.2.9-.4,1.3-.6.6-.2,1.2-.4,1.8-.6.6-.2,1.2-.3,1.8-.4h0c3.7-.5,7.6.4,10.7,2.6h0ZM40.7,23.4c-.3,0-.7-.1-1-.1-.2,0-.4,0-.7,0-.4,0-.8,0-1.1,0-.2,0-.4,0-.6,0-.6,0-1.1,0-1.7.1-.7,0-1.4.2-2,.4-.4.1-.9.3-1.3.4-.1,0-.2,0-.3.1-.4.2-.8.3-1.2.5h0c-.3.2-.6.3-.9.5,0,0,0,0,0,0,0-.2.2-.4.3-.6,0-.1,0-.2.2-.3.2-.3.4-.6.6-.9.2-.3.5-.6.7-.8.9-.9,1.9-1.6,3.1-2.1.7-.3,1.4-.5,2.1-.6,1-.2,2.1-.1,3.1.1.3,0,.6.1.8.2.5.2,1.1.4,1.6.7.3.1.5.3.7.5,0,.4-.2.8-.3,1.2,0,0,0,.2,0,.2-.1.4-.3.7-.5,1.1,0,0,0,0,0,0-.2,0-.4,0-.6-.1-.2,0-.5-.1-.7-.2h0ZM39.6,27.9c.3.2.5.4.7.7.5.5,1,1,1.3,1.6.1.2.2.4.3.6.4.8.7,1.6.8,2.4,0,0,0,0,0,0-.3.2-.7.4-1,.6,0,0-.1,0-.2.1-.4.2-.7.3-1.1.4,0,0,0,0,0,0-.1-.2-.2-.3-.3-.5-.1-.2-.2-.4-.4-.6-.2-.3-.4-.5-.6-.8-.1-.2-.3-.3-.4-.5-.2-.3-.5-.5-.8-.8-.1-.1-.3-.3-.4-.4-.4-.4-.8-.7-1.3-1.1,0,0,0,0,0,0-.4-.3-.9-.6-1.4-.9-.1,0-.2-.1-.3-.2,0,0,0,0,0,0-.3-.2-.6-.3-.9-.5-.1,0-.2-.1-.3-.2-.2,0-.4-.2-.6-.3,0,0,0,0,0,0-.1,0-.2,0-.4-.1-.2,0-.4-.2-.6-.2-.1,0-.3,0-.4-.1-.2,0-.4-.1-.6-.2,0,0-.1,0-.2,0,0,0,.1,0,.2,0,.3-.1.6-.2.8-.3.1,0,.2,0,.4-.1.4-.1.8-.2,1.2-.3.3,0,.6,0,.8,0,0,0,.2,0,.3,0,1.2,0,2.3.2,3.4.7.4.2.8.4,1.2.6.3.2.6.4.9.6h0ZM35.9,38c0,.3,0,.5-.1.8-.1.6-.3,1.1-.5,1.6-.1.3-.2.5-.4.8-.1.2-.3.5-.4.7-.4,0-.8-.2-1.2-.3,0,0-.2,0-.2,0-.4-.1-.7-.3-1.1-.5,0,0,0,0,0,0,0-.2,0-.4.1-.6,0-.2.1-.5.1-.7,0-.3.1-.7.1-1,0-.2,0-.4,0-.7,0-.4,0-.8,0-1.1,0-.2,0-.4,0-.6,0-.6,0-1.1-.1-1.7,0-.7-.2-1.4-.4-2.1-.1-.4-.3-.9-.4-1.3,0-.1,0-.2-.1-.3-.1-.4-.3-.7-.4-1,0,0,0-.2-.1-.2-.2-.3-.3-.7-.5-1,0,0,0,0,.1,0,.2,0,.5.2.7.3.1,0,.2.1.4.2.3.2.7.4,1,.6,0,0,0,0,0,0h0c.3.2.6.5.8.7.7.6,1.2,1.4,1.6,2.2.1.3.3.5.4.8.3.7.5,1.4.6,2.1,0,.3,0,.5,0,.8,0,.5,0,1.1,0,1.6h0ZM21.7,40.8c0,0,0-.1-.1-.2-.2-.4-.3-.8-.4-1.2,0,0,0,0,0,0,.2-.1.4-.2.6-.4.2-.1.4-.3.6-.4.3-.2.6-.4.8-.6.2-.1.4-.3.5-.4.3-.3.6-.5.8-.8.1-.1.3-.3.4-.4.4-.4.8-.9,1.1-1.3.4-.5.8-1.1,1.1-1.7.2-.4.4-.8.6-1.2,0-.1.1-.2.1-.3.1-.3.3-.7.4-1,0,0,0-.2,0-.3.1-.4.2-.7.3-1.1,0,0,0,.1,0,.2.1.3.2.6.3.9,0,.1,0,.2.1.4.1.4.2.8.3,1.2,0,.4,0,.8,0,1.1,0,1.2-.2,2.3-.7,3.4-.3.7-.7,1.4-1.2,2-.6.8-1.4,1.5-2.3,2.1-.9.6-2,1-3.1,1.2-.2-.4-.4-.7-.6-1.1h0ZM19.9,34.7c-1,.2-2.1.1-3.1-.1-.3,0-.5-.1-.8-.2,0,0-.2,0-.2,0-.2,0-.4-.1-.5-.2s-.3-.2-.5-.2c0,0-.2,0-.3-.1-.3-.1-.5-.3-.8-.5,0-.4.2-.8.3-1.2,0,0,0-.2,0-.2.1-.4.3-.7.5-1.1,0,0,0,0,0,0,.2,0,.4,0,.6.1.2,0,.5.1.7.2.3,0,.7.1,1,.1.2,0,.4,0,.7,0,.4,0,.8,0,1.1,0,.2,0,.4,0,.6,0,.6,0,1.1,0,1.7-.1h0c.7,0,1.4-.2,2-.4.4-.1.9-.3,1.3-.4.1,0,.2,0,.3-.1.4-.2.8-.3,1.2-.5,0,0,0,0,0,0,.3-.1.6-.3.9-.5,0,0,0,0,0,0,0,.2-.2.4-.3.6,0,.1,0,.2-.2.3-.2.3-.4.6-.6.9-.2.3-.4.6-.7.8-.9.9-1.9,1.7-3.1,2.1-.7.3-1.4.5-2.1.6h0ZM14.8,20.6c0,0,.1,0,.2-.1.4-.2.7-.3,1.1-.4,0,0,0,0,0,0,.1.2.2.3.3.5.1.2.2.4.4.6.2.3.4.5.6.8.1.2.3.3.4.5.2.3.5.5.8.8.1.1.2.3.4.4.4.4.8.7,1.3,1.1.5.4,1.1.8,1.7,1.1.4.2.8.4,1.2.6.1,0,.2.1.3.1.1,0,.2.1.4.2.2,0,.4.1.6.2.1,0,.2,0,.4.1.4.1.8.3,1.3.4,0,0-.1,0-.2,0-.3.1-.6.2-.8.3-.1,0-.2,0-.4.1-.4.1-.8.2-1.2.3h0c-.2,0-.3,0-.5,0-.2,0-.4,0-.6,0-1.2,0-2.3-.2-3.4-.7-.8-.3-1.5-.7-2.1-1.2-.8-.6-1.5-1.4-2.1-2.3-.6-.9-1-1.9-1.2-3,0,0,0,0,0,0,.3-.2.7-.4,1-.6h0ZM20.9,15.7c.2-1.1.7-2.2,1.3-3.1.4,0,.8.2,1.2.3,0,0,.2,0,.2,0,.4.1.7.3,1.1.5,0,0,0,0,0,0,0,.2,0,.4-.1.6,0,.2-.1.5-.1.7,0,.3-.1.7-.1,1,0,.2,0,.4,0,.7,0,.4,0,.8,0,1.1,0,.2,0,.4,0,.6,0,.6,0,1.1.1,1.7,0,.7.2,1.4.4,2.1.1.4.3.9.4,1.3,0,.1,0,.2.1.3.1.4.3.7.4,1,0,0,0,.1.1.2.2.3.3.7.5,1,0,0,0,0-.1,0-.2,0-.5-.2-.7-.3-.1,0-.2-.1-.3-.2-.3-.2-.7-.4-1-.6-.3-.2-.6-.5-.8-.7-.9-.8-1.6-1.9-2-3-.3-.7-.5-1.4-.6-2.1-.2-1.1-.1-2.1.1-3.2h0ZM27.8,17.9c.3-.7.7-1.4,1.2-2,.6-.8,1.4-1.5,2.3-2.1.9-.6,2-1,3.1-1.2.2.4.4.7.6,1.1,0,0,0,.1.1.2.2.4.3.8.4,1.2,0,0,0,0,0,0-.2.1-.4.2-.6.4-.2.1-.4.3-.6.4-.3.2-.6.4-.8.6-.2.1-.4.3-.5.4-.3.3-.6.5-.8.8-.1.1-.3.3-.4.4-.4.4-.8.9-1.1,1.3-.4.5-.8,1.1-1.1,1.7-.2.4-.4.8-.6,1.2,0,.1-.1.2-.1.3-.1.3-.3.6-.4,1,0,0,0,.2-.1.3-.1.4-.2.7-.3,1.1,0,0,0-.1,0-.2-.1-.3-.2-.6-.3-.9,0-.1,0-.2-.1-.4-.1-.4-.2-.8-.3-1.2,0-.4,0-.8,0-1.1,0-1.2.2-2.3.7-3.4h0ZM38.2,3.1c2.1,2.9,3,6.5,2.7,10,0,0,0,0-.1,0-.5,0-1,.2-1.5.4,0,0-.2,0-.3,0-.5.2-1,.3-1.5.5-.2,0-.4.2-.6.2,0,0,0,0,0,0,0,0,0-.2,0-.2,0-.3-.2-.5-.3-.8,0-.1,0-.2-.1-.3-.1-.2-.2-.4-.4-.7,0,0-.1-.2-.2-.3-.2-.3-.4-.6-.6-.9l-.3-.4h-.5c-1.5.3-2.9.8-4.2,1.6-1.1.7-2,1.5-2.7,2.5-.6.7-1,1.5-1.4,2.4-.1.3-.3.7-.4,1,0,0,0,0,0,0,0,0,0,0,0-.1,0-.1,0-.3,0-.4,0-.3,0-.7,0-1,0-.2,0-.3,0-.5,0-.3,0-.7.1-1,0-.1,0-.3,0-.4,0-.5.2-.9.4-1.4.1-.4.3-.9.5-1.3.1-.3.3-.6.4-.9.4-.9.9-1.7,1.5-2.5h0c2.3-3,5.6-5,9.3-5.6h0ZM18.3,3.1c3.5.6,6.7,2.4,8.9,5.1,0,0,0,0,0,.1-.3.4-.6.9-.8,1.3,0,0,0,.2-.1.2-.3.5-.5,1-.7,1.5,0,.2-.1.3-.2.5-.1,0-.2-.1-.4-.2-.1,0-.2-.1-.3-.1,0,0,0,0,0,0-.4-.2-.8-.3-1.1-.4,0,0-.2,0-.3,0-.4-.1-.8-.2-1.2-.2h-.5c0,0-.3.3-.3.3-.7.9-1.2,1.9-1.6,3-.1.4-.2.7-.3,1.1-.3,1.2-.3,2.5-.1,3.8.1.9.4,1.7.7,2.5.1.3.3.7.5,1,0,0,0,0,0,0,0,0-.2-.2-.2-.2-.3-.3-.5-.5-.8-.8-.1-.1-.2-.2-.3-.4-.2-.3-.4-.5-.6-.8,0-.1-.2-.2-.3-.4-.3-.4-.5-.8-.8-1.2h0c-.2-.5-.5-.9-.7-1.4-.5-1.2-.8-2.4-1-3.6-.5-3.7.4-7.6,2.6-10.6h0ZM4.3,17.3c2.8-2,6.4-3,9.9-2.7,0,0,0,0,0,.1,0,.5.2,1,.4,1.5,0,0,0,.2,0,.3.2.5.3,1,.5,1.5,0,.2.2.4.3.6,0,0,0,0,0,0,0,0-.1,0-.2,0-.3,0-.5.2-.8.3-.1,0-.2,0-.3.1-.2.1-.4.2-.6.3,0,0-.2.1-.3.2-.3.2-.6.4-.8.6,0,0,0,0,0,0l-.4.3h0v.5c.3,1.5.7,2.8,1.5,4.1.6,1.1,1.5,2,2.4,2.8.3.3.7.5,1.1.7.1,0,.2.1.3.2.3.2.6.3,1,.5,0,0,0,0,.2,0,0,0,0,0,0,0,.2,0,.4.1.6.2.1,0,.2,0,.4.1h0c0,0-.1,0-.2,0-.2,0-.3,0-.5,0-.3,0-.7,0-1,0-.2,0-.3,0-.5,0-.3,0-.7,0-1-.1-.2,0-.3,0-.5,0-.5-.1-1-.2-1.4-.4h0c-.4-.1-.8-.3-1.2-.4-.6-.3-1.2-.6-1.8-.9-.6-.3-1.1-.7-1.6-1.1h0c-2.9-2.3-4.9-5.6-5.5-9.2ZM4.2,37.2c.6-3.5,2.4-6.7,5.1-8.9,0,0,0,0,.1,0,.4.3.9.6,1.4.9,0,0,.2,0,.3.1.5.3,1,.5,1.5.7.1,0,.2,0,.4.1,0,0,0,0,0,0,0,0,0,.1,0,.2-.1.2-.2.5-.3.7,0,.1,0,.2-.1.3,0,.2-.1.5-.2.7,0,0,0,.2,0,.3,0,.3-.1.7-.2,1v.5c0,0,.3.3.3.3,1.2.9,2.7,1.6,4.2,1.9,1.2.3,2.5.3,3.7.1.9-.1,1.7-.4,2.5-.7.3-.1.7-.3,1-.5,0,0,0,0,0,0,0,0-.1.1-.2.2-.3.3-.6.6-.9.9-.1.1-.2.2-.4.3-.3.2-.5.4-.8.6-.1,0-.2.2-.4.3-.4.3-.8.5-1.3.8,0,0,0,0,0,0-.4.2-.9.4-1.3.6-1.2.5-2.4.8-3.6,1-3.7.5-7.6-.4-10.7-2.6h0ZM18.4,51.3c-2.1-2.9-3-6.5-2.7-10,0,0,0,0,.1,0,.5,0,1-.2,1.5-.3,0,0,.2,0,.3,0,.5-.2,1-.3,1.5-.5.2,0,.4-.2.6-.2,0,0,0,0,0,0,0,0,0,.2,0,.2,0,.3.2.5.3.8,0,.1,0,.2.1.3.1.2.2.4.4.7,0,0,.1.2.2.3.2.3.4.6.6.9l.3.4h.5c1.5-.3,2.9-.8,4.2-1.6,1.1-.7,2-1.5,2.7-2.5.6-.7,1-1.5,1.4-2.4.1-.3.3-.7.4-1,0,0,0,0,0,0,0,0,0,0,0,.1,0,.1,0,.3,0,.4,0,.3,0,.7,0,1,0,.2,0,.3,0,.5,0,.3,0,.7-.1,1,0,.1,0,.3,0,.4,0,.5-.2.9-.4,1.4-.1.5-.3.9-.5,1.3-.5,1.2-1.1,2.3-1.9,3.3-2.3,3-5.6,5-9.3,5.6h0ZM38.3,51.3c-3.5-.6-6.7-2.4-8.9-5.1,0,0,0,0,0-.1.3-.4.6-.9.8-1.3,0,0,0-.2.1-.2.3-.5.5-1,.7-1.5h0c0-.2.1-.3.2-.5,0,0,0,0,0,0,0,0,.1,0,.2,0,.2.1.5.2.7.3.1,0,.2,0,.3.1.2,0,.5.1.7.2.1,0,.2,0,.3,0,.3,0,.7.1,1,.2h.5c0,0,.1-.1.1-.1l.2-.2c.3-.4.6-.9.9-1.4.5-.9.8-1.8,1-2.7.1-.6.2-1.2.2-1.9,0-.3,0-.6,0-.9s0-.6,0-.9c-.1-.9-.4-1.7-.7-2.5-.1-.3-.3-.7-.5-1,0,0,0,0,0,0,0,0,.2.2.2.2.3.3.5.5.8.8.1.1.2.2.3.4.2.3.4.5.6.8,0,.1.2.2.3.4.3.4.5.8.7,1.2,0,0,0,0,0,0,.2.4.5.9.7,1.4.5,1.2.8,2.4,1,3.6.5,3.7-.4,7.6-2.6,10.6h0ZM52.3,37.1c-2.8,2-6.4,3-9.9,2.7,0,0,0,0,0-.1,0-.5-.2-1-.3-1.5,0,0,0-.2,0-.3-.2-.5-.3-1-.5-1.5,0-.2-.2-.4-.3-.6,0,0,0,0,0,0,0,0,.1,0,.2,0,.3,0,.5-.2.8-.3,0,0,.2,0,.3-.1.2-.1.4-.2.6-.3,0,0,.2-.1.3-.2.3-.2.6-.4.8-.6h0l.4-.3h0v-.5c0,0,0,0,0,0-.2-1.4-.7-2.8-1.4-4-.2-.3-.4-.7-.7-1-.5-.7-1.1-1.3-1.8-1.8-.3-.3-.7-.5-1.1-.7-.1,0-.2-.1-.3-.2-.3-.2-.6-.3-.9-.5,0,0-.1,0-.2,0,0,0,0,0,0,0-.2,0-.4-.1-.6-.2-.1,0-.3,0-.4-.1h0c0,0,.1,0,.2,0,.2,0,.3,0,.5,0,.3,0,.7,0,1,0,.2,0,.3,0,.5,0,.3,0,.7,0,1,.1.2,0,.3,0,.5,0,.5.1,1,.2,1.4.4h0c.4.1.8.3,1.2.4.6.3,1.2.6,1.8.9.6.3,1.1.7,1.6,1.1,2.9,2.3,4.9,5.6,5.5,9.2h0Z"/>
  <path class="cls-1" d="M82,20.7v4.5h-10.4v22.8h-4.5v-27.5c0-8,6.5-14.5,14.5-14.5h.4v4.5h-.4c-2.7,0-5.2,1.1-7.1,2.9s-2.9,4.4-2.9,7.1v.2s10.4,0,10.4,0Z"/>
  <path class="cls-1" d="M86.2,15.4c-.6-.6-.9-1.4-.9-2.2,0-1.7,1.4-3,3-3s3,1.4,3.1,3c0,1.7-1.3,3.1-3,3.1-.8,0-1.6-.3-2.2-.9ZM90.6,48h-4.5s.1-27.3.1-27.3h4.5s-.1,27.3-.1,27.3Z"/>
  <path class="cls-1" d="M124.7,28.4c2.2,5.4,1,11.7-3.1,15.8s-10.4,5.4-15.8,3.1c-5.4-2.2-9-7.5-9-13.4h0s.2-26.7.2-26.7h4.5s0,16.2,0,16.2c2.7-2.6,6.3-4,10-4,5.9,0,11.2,3.5,13.4,9h0ZM111.3,44c4.1,0,7.7-2.4,9.3-6.2,1.6-3.8.7-8.1-2.2-10.9-2.9-2.9-7.2-3.7-10.9-2.2s-6.2,5.2-6.2,9.3c0,5.5,4.5,10,10,10h0s0,0,0,0Z"/>
  <path class="cls-1" d="M158.3,28.4c2.2,5.4,1,11.7-3.1,15.8s-10.4,5.4-15.8,3.1c-5.4-2.2-9-7.5-9-13.4h0s.1-26.7.1-26.7h4.5s0,16.2,0,16.2c2.7-2.6,6.3-4,10-4,5.9,0,11.2,3.5,13.4,9h0ZM144.9,44c4.1,0,7.7-2.4,9.3-6.2,1.6-3.8.7-8.1-2.2-10.9-2.9-2.9-7.2-3.7-10.9-2.2-3.8,1.6-6.2,5.2-6.2,9.3,0,5.5,4.5,10,10,10h0s0,0,0,0Z"/>
  <path class="cls-1" d="M168.3,45.5c0,1.4-1,2.6-2.4,2.9-1.4.3-2.8-.5-3.3-1.8s0-2.8,1.1-3.6c1.2-.8,2.7-.6,3.7.4.6.5.9,1.3.8,2.1h0Z"/>
  <path class="cls-1" d="M200.3,34v14.1h-4.5v-3.6c-4.7,4.5-11.9,5.3-17.5,2-5.6-3.3-8.3-10-6.6-16.3,1.7-6.3,7.5-10.7,14-10.6,8,0,14.5,6.5,14.5,14.5h0ZM195.8,34c0-4.1-2.4-7.7-6.2-9.3s-8.1-.7-10.9,2.2-3.7,7.2-2.2,10.9c1.6,3.7,5.2,6.2,9.3,6.2,5.5,0,10-4.5,10-10h0Z"/>
  <path class="cls-1" d="M206.9,15.4c-.6-.6-.9-1.4-.9-2.2,0-1.7,1.4-3,3-3,1.7,0,3,1.4,3.1,3,0,1.7-1.3,3.1-3,3.1-.8,0-1.6-.3-2.2-.9h0ZM211.3,48h-4.5s.1-27.3.1-27.3h4.5s-.1,27.3-.1,27.3Z"/>
</svg>