<?xml version="1.0" encoding="UTF-8"?><svg id="Layer_1" xmlns="http://www.w3.org/2000/svg" viewBox="0 0 72 72"><defs><style>.cls-1{fill:#fff;stroke-width:0px;}</style></defs><path class="cls-1" d="M70.475,22.36l.083-.625-.501-.384c-1.517-1.162-3.177-2.113-4.926-2.837-3.18-1.317-6.652-1.883-10.096-1.619.388-5.313-1.18-10.691-4.44-14.947l-.384-.501-.626.083c-5.273.699-10.158,3.363-13.635,7.344-2.231-2.56-5.049-4.571-8.178-5.867-1.748-.724-3.594-1.226-5.486-1.477l-.626-.083-.384.501c-3.278,4.279-4.844,9.689-4.433,15.03-5.243-.334-10.55,1.241-14.747,4.455l-.501.384.083.625c.691,5.214,3.311,10.064,7.223,13.532-4.003,3.479-6.68,8.377-7.381,13.666l-.083.625.501.384c4.277,3.277,9.685,4.843,15.023,4.433-.395,5.32,1.173,10.708,4.438,14.97l.384.501.625-.083c5.28-.7,10.172-3.37,13.649-7.361,3.478,3.992,8.37,6.661,13.65,7.361l.625.083.384-.501c3.278-4.279,4.844-9.689,4.432-15.03,5.243.334,10.55-1.241,14.747-4.455l.501-.384-.083-.625c-.691-5.214-3.311-10.064-7.224-13.532,4.003-3.478,6.68-8.377,7.381-13.666ZM68.219,22.703c-.772,4.646-3.221,8.929-6.821,11.937-.09-.065-.185-.122-.276-.185-.168-.117-.338-.23-.509-.342-.241-.158-.486-.312-.734-.461-.153-.092-.307-.182-.462-.27-.273-.155-.551-.304-.831-.447-.148-.076-.297-.151-.447-.223-.272-.131-.549-.256-.828-.376-.11-.047-.215-.102-.325-.148-.061-.025-.129-.045-.19-.069-.101-.04-.198-.087-.3-.126.012-.025.022-.051.034-.076.043-.089.079-.181.12-.27.149-.323.287-.65.412-.983.052-.139.099-.278.147-.418.104-.306.196-.615.279-.927.035-.133.073-.265.105-.399.102-.439.19-.88.249-1.325l.083-.625-.501-.384c-.451-.345-.928-.656-1.419-.945-.161-.094-.329-.173-.494-.261-.339-.182-.682-.356-1.035-.509-.076-.033-.146-.078-.222-.109-.208-.086-.422-.154-.634-.23-.141-.051-.279-.106-.422-.153-.456-.148-.918-.278-1.386-.378-1.628-.348-3.286-.402-4.93-.162-1.146.167-2.27.477-3.341.921-.462.191-.909.405-1.342.64.013-.014.023-.03.036-.044.07-.077.148-.145.219-.221.379-.4.774-.782,1.184-1.146.155-.137.314-.269.473-.401.361-.301.733-.588,1.116-.862.161-.115.32-.234.484-.344.542-.364,1.098-.71,1.681-1.023h0c.582-.312,1.184-.597,1.789-.848.77-.319,1.56-.589,2.363-.808.803-.219,1.62-.388,2.444-.504h.002c4.981-.702,10.13.574,14.229,3.505ZM52.605,30.9c-.456-.086-.915-.144-1.374-.2-.299-.036-.596-.083-.897-.107-.509-.04-1.02-.047-1.531-.051-.253-.002-.505-.021-.759-.014-.765.021-1.532.077-2.301.179-.9.12-1.805.298-2.69.531-.598.157-1.182.347-1.76.552-.145.052-.29.105-.434.159-.564.213-1.121.441-1.663.699-.009.004-.019.008-.028.012-.417.199-.827.411-1.23.636.008-.022.014-.044.023-.066.119-.291.262-.572.403-.853.07-.139.129-.284.204-.421.228-.412.478-.811.754-1.193.288-.399.601-.78.931-1.134,1.157-1.242,2.544-2.204,4.123-2.858.905-.375,1.855-.637,2.822-.778,1.387-.203,2.786-.157,4.159.137.376.08.749.18,1.116.297.734.234,1.447.539,2.122.909.338.185.666.386.983.602-.098.522-.246,1.037-.414,1.543-.034.103-.067.205-.104.307-.177.487-.382.963-.62,1.422-.015.03-.033.058-.049.088-.278-.077-.561-.122-.84-.188-.315-.074-.628-.152-.945-.211ZM51.129,36.876c.348.275.649.598.962.908.672.665,1.291,1.38,1.789,2.194.16.262.306.535.445.81.51,1.006.885,2.086,1.094,3.191-.001,0-.002.001-.003.002-.444.302-.915.564-1.398.804-.096.048-.191.097-.289.143-.474.221-.962.412-1.461.569-.034.011-.069.019-.103.029-.144-.243-.311-.468-.464-.704-.168-.261-.333-.524-.512-.776-.264-.373-.547-.728-.833-1.082-.182-.225-.356-.457-.547-.675-.329-.376-.683-.73-1.039-1.083-.174-.172-.336-.355-.516-.522-.544-.504-1.112-.985-1.711-1.437-.004-.003-.007-.006-.011-.009-.585-.441-1.207-.849-1.843-1.233-.15-.091-.296-.189-.449-.276-.009-.005-.02-.01-.029-.015-.413-.236-.833-.457-1.258-.665-.153-.075-.309-.139-.463-.21-.256-.118-.509-.24-.769-.348-.031-.013-.064-.023-.095-.036-.155-.063-.313-.118-.469-.178-.283-.108-.567-.215-.855-.312-.185-.062-.371-.117-.557-.174-.264-.081-.528-.159-.795-.23-.074-.019-.146-.045-.22-.063.085-.041.171-.082.258-.12.366-.163.741-.306,1.122-.432.163-.054.325-.113.49-.16.542-.153,1.093-.28,1.653-.354.374-.05.751-.065,1.125-.079.116-.004.233-.023.348-.024,1.579-.01,3.125.293,4.595.902.575.238,1.121.531,1.648.853.399.244.791.501,1.158.791ZM46.106,50.375c-.045.352-.106.702-.183,1.051-.163.739-.398,1.463-.699,2.159-.151.348-.317.689-.5,1.021-.183.332-.381.655-.593.966-.528-.1-1.047-.249-1.559-.42-.108-.036-.215-.07-.322-.109-.491-.18-.971-.389-1.433-.632-.032-.017-.063-.036-.095-.053.073-.275.116-.553.178-.829.069-.307.143-.612.198-.92.082-.451.136-.905.189-1.359.034-.291.078-.581.099-.874.038-.502.042-1.006.044-1.51,0-.247.018-.493.01-.74-.023-.752-.08-1.505-.181-2.26-.124-.921-.309-1.845-.549-2.746-.158-.592-.349-1.171-.553-1.743-.056-.157-.115-.311-.175-.466-.181-.471-.377-.936-.59-1.393-.048-.103-.091-.207-.14-.309-.223-.46-.46-.913-.715-1.357.065.024.131.044.196.07.321.127.632.275.941.43.156.078.315.147.467.232.448.25.884.523,1.296.829.002.002.005.003.007.005h0c.391.291.77.611,1.125.953.885.85,1.623,1.819,2.203,2.893.193.358.369.727.526,1.107.376.907.638,1.859.779,2.829.051.352.086.705.106,1.059.038.707.012,1.414-.077,2.117ZM27.148,54.092c-.048-.097-.098-.193-.143-.292-.228-.5-.422-1.015-.58-1.541-.012-.04-.021-.08-.032-.12.255-.15.49-.325.738-.484.272-.174.546-.344.808-.53.381-.269.744-.561,1.105-.853.235-.19.476-.371.703-.571.385-.339.747-.705,1.107-1.072.178-.181.367-.349.538-.537.52-.568,1.016-1.162,1.479-1.789.54-.731,1.038-1.499,1.478-2.283.291-.517.551-1.047.798-1.582.069-.149.134-.3.199-.45.189-.434.363-.874.523-1.319.043-.121.091-.24.132-.362.165-.485.315-.974.445-1.47.042.087.083.174.123.263.167.37.313.749.442,1.135.054.163.113.324.161.49.155.544.284,1.097.36,1.658.068.504.104,1.017.106,1.524.007,1.571-.297,3.108-.902,4.57-.396.956-.915,1.856-1.543,2.675-.854,1.114-1.893,2.06-3.089,2.809-1.253.786-2.664,1.338-4.115,1.612-.32-.469-.594-.969-.844-1.48ZM24.804,46.005c-1.387.203-2.786.157-4.159-.137-.365-.078-.727-.175-1.084-.288-.109-.034-.214-.079-.322-.117-.244-.085-.487-.17-.725-.27-.237-.1-.466-.216-.695-.331-.126-.063-.256-.117-.379-.185-.349-.19-.689-.395-1.017-.618.099-.522.246-1.036.414-1.543.034-.103.067-.206.104-.308.176-.486.382-.962.62-1.421.016-.03.034-.058.049-.088.279.077.561.122.84.188.315.074.628.152.944.211.456.086.915.144,1.374.2.299.037.598.084.898.108.506.04,1.015.046,1.525.05.255.002.509.021.765.014.76-.021,1.521-.077,2.284-.177.006,0,.011,0,.016-.001.9-.12,1.805-.298,2.691-.531.597-.157,1.182-.347,1.76-.552.146-.052.291-.105.435-.159.562-.213,1.118-.44,1.659-.697.011-.005.022-.009.033-.014.416-.199.826-.411,1.229-.635-.008.022-.014.044-.023.066-.118.29-.261.57-.402.85-.071.141-.13.287-.206.425-.228.412-.478.811-.754,1.192-.287.398-.6.779-.93,1.134-1.157,1.242-2.544,2.204-4.123,2.858-.905.375-1.854.637-2.822.778ZM17.982,27.215c.095-.048.189-.097.286-.141.475-.221.963-.413,1.463-.57.034-.011.068-.018.102-.029.144.243.311.467.463.702.169.262.334.525.514.779.263.372.546.727.832,1.08.182.226.357.458.548.676.331.377.685.732,1.042,1.086.173.171.333.352.512.517.548.508,1.12.993,1.723,1.447.724.544,1.494,1.052,2.291,1.508.524.3,1.062.57,1.605.824.147.069.295.135.444.201.158.07.314.148.474.214.263.109.532.199.798.297.167.062.332.129.501.186.556.19,1.119.363,1.689.508-.086.041-.171.082-.257.12-.366.163-.741.306-1.122.431-.164.054-.325.114-.491.161-.542.153-1.092.279-1.651.354h-.001c-.226.03-.451.031-.677.048-.266.02-.533.054-.797.056-1.578.01-3.125-.293-4.595-.902-1.009-.418-1.954-.971-2.806-1.644-1.095-.865-2.021-1.908-2.751-3.102-.747-1.222-1.273-2.593-1.539-4.001.001,0,.003-.002.004-.003.444-.302.915-.564,1.398-.804ZM26.077,20.574c.326-1.477.941-2.899,1.792-4.146.53.1,1.052.25,1.565.422.104.035.207.068.31.105.493.181.976.391,1.441.635.031.016.061.035.092.052-.073.275-.116.553-.178.829-.069.307-.143.613-.198.921-.081.45-.136.903-.189,1.356-.034.292-.078.583-.099.876-.037.501-.041,1.004-.043,1.507,0,.248-.018.494-.01.742.023.752.08,1.505.181,2.259.124.922.309,1.846.55,2.746.158.592.349,1.172.554,1.745.055.155.114.309.174.463.182.475.38.943.594,1.403.046.099.087.2.135.298.223.461.46.916.716,1.361-.063-.024-.128-.043-.19-.068-.333-.133-.657-.286-.976-.447-.142-.072-.289-.135-.428-.213-.454-.252-.895-.528-1.312-.839-.391-.291-.77-.611-1.125-.953-1.181-1.133-2.098-2.479-2.728-4-.376-.907-.638-1.859-.779-2.829-.205-1.409-.153-2.831.154-4.227ZM35.261,23.524c.396-.956.915-1.856,1.542-2.675.854-1.115,1.894-2.06,3.089-2.81,1.253-.785,2.664-1.337,4.115-1.612.319.468.594.968.844,1.479.048.098.098.195.143.294.227.499.421,1.013.579,1.538.012.04.021.081.033.121-.256.15-.491.325-.739.485-.271.174-.545.344-.807.529-.381.269-.744.561-1.105.853-.234.19-.476.371-.703.571-.384.339-.745.704-1.105,1.07-.178.182-.368.351-.541.539-.52.568-1.015,1.161-1.479,1.789-.539.731-1.037,1.499-1.478,2.283-.291.517-.551,1.046-.798,1.581-.069.15-.134.301-.2.452-.187.43-.359.866-.518,1.307-.045.126-.096.251-.139.378-.164.483-.314.971-.444,1.466-.042-.087-.083-.175-.123-.263-.167-.371-.314-.75-.442-1.135-.054-.163-.113-.324-.161-.489-.155-.544-.284-1.097-.36-1.659-.068-.503-.103-1.015-.106-1.524-.007-1.57.297-3.108.902-4.569ZM49.244,3.785c2.766,3.868,4.058,8.673,3.605,13.387-.056.01-.11.029-.165.039-.669.126-1.331.282-1.984.469-.117.034-.232.072-.348.107-.678.207-1.35.436-2.005.707-.256.106-.51.217-.763.333-.009-.03-.023-.059-.033-.088-.034-.103-.076-.202-.113-.304-.122-.344-.255-.683-.404-1.016-.063-.141-.129-.279-.196-.418-.146-.302-.304-.598-.471-.889-.071-.124-.139-.249-.215-.371-.246-.399-.505-.789-.789-1.16l-.384-.501-.625.083c-1.98.263-3.923.964-5.62,2.028-1.417.888-2.648,2.009-3.661,3.33-.743.969-1.358,2.035-1.826,3.167-.186.45-.346.906-.484,1.367,0,.003-.002.006-.003.008-.003-.06-.012-.121-.014-.181-.007-.194,0-.387-.001-.58-.002-.458.009-.916.039-1.372.015-.222.034-.444.057-.666.046-.45.11-.898.187-1.345.034-.197.062-.395.102-.592.13-.634.282-1.265.476-1.891.186-.601.397-1.187.626-1.742.165-.399.343-.792.534-1.178.571-1.159,1.254-2.259,2.039-3.282v-.002c3.024-3.942,7.529-6.632,12.44-7.449ZM22.632,3.786c4.643.771,8.924,3.218,11.932,6.815-.035.049-.062.104-.096.153-.401.578-.775,1.174-1.119,1.788-.061.109-.117.22-.176.33-.348.648-.674,1.308-.957,1.99-.09.218-.177.439-.262.664-.154-.077-.314-.14-.47-.211-.144-.065-.284-.139-.43-.199-.02-.008-.04-.012-.06-.02-.498-.204-1.008-.373-1.525-.519-.115-.032-.229-.061-.344-.091-.53-.135-1.064-.25-1.603-.322l-.626-.083-.384.501c-.929,1.213-1.66,2.59-2.153,4.045-.164.485-.303.979-.413,1.478-.365,1.654-.426,3.34-.183,5.011.167,1.149.478,2.275.922,3.349.19.459.403.903.637,1.334-.027-.025-.058-.046-.084-.071-.115-.106-.22-.221-.332-.329-.348-.338-.685-.686-1.006-1.049-.14-.158-.276-.32-.411-.483-.289-.348-.564-.708-.829-1.076-.113-.158-.231-.313-.339-.475-.356-.529-.696-1.072-1.003-1.64l-.002-.003c-.323-.599-.62-1.221-.88-1.849-.639-1.543-1.081-3.163-1.313-4.814-.699-4.979.576-10.126,3.507-14.224ZM3.938,22.785c3.802-2.718,8.525-4.018,13.163-3.627.01.056.029.11.039.166.126.667.281,1.327.468,1.98.034.118.072.234.108.351.206.677.435,1.348.707,2.003.118.284.242.567.372.848-.023.008-.044.018-.067.026-.087.03-.171.067-.258.099-.342.125-.679.261-1.01.412-.133.06-.263.125-.394.189-.293.144-.579.298-.86.462-.119.069-.239.136-.356.208-.382.238-.756.487-1.112.76-.001.001-.003.002-.004.003l-.501.384h0s.083.626.083.626c.259,1.954.913,3.8,1.943,5.485.865,1.414,1.962,2.651,3.261,3.676.445.352.921.666,1.407.961.141.085.283.166.427.246.419.235.847.449,1.286.639.069.03.132.072.202.1.026.011.053.018.079.028.267.109.541.199.813.291.158.053.313.117.473.164,0,0,.002,0,.003,0-.07.003-.141.014-.211.016-.209.007-.416,0-.625,0-.459,0-.916-.013-1.372-.045-.229-.016-.457-.036-.685-.061-.458-.049-.914-.118-1.369-.199-.201-.036-.403-.066-.603-.108-.646-.137-1.29-.298-1.928-.502h0c-.546-.174-1.074-.366-1.567-.571-.827-.343-1.627-.739-2.395-1.186-.768-.447-1.504-.945-2.203-1.49h0c-3.865-3.017-6.506-7.485-7.312-12.337ZM3.781,49.297c.772-4.646,3.221-8.929,6.821-11.937.052.037.11.066.162.103.596.42,1.21.811,1.846,1.17.111.063.224.12.336.181.672.364,1.358.705,2.068.999.16.066.324.132.49.195-.012.025-.022.05-.034.075-.044.09-.08.184-.122.275-.148.321-.286.647-.41.979-.052.139-.1.279-.147.42-.104.306-.196.615-.279.927-.035.133-.073.265-.104.399-.102.439-.19.881-.249,1.325l-.083.625.501.384c1.642,1.258,3.583,2.153,5.612,2.586,1.628.348,3.286.402,4.931.162,1.146-.168,2.27-.478,3.341-.921.461-.191.908-.405,1.341-.64-.013.014-.023.03-.037.044-.069.076-.146.144-.216.218-.38.401-.776.784-1.187,1.15-.154.137-.312.267-.471.399-.362.301-.735.589-1.119.864-.161.115-.319.233-.483.343-.541.363-1.096.709-1.677,1.021-.001,0-.003.001-.004.002-.584.313-1.186.598-1.789.848-1.541.638-3.159,1.08-4.807,1.312-4.982.702-10.131-.574-14.231-3.505ZM22.756,68.215c-2.766-3.867-4.058-8.673-3.606-13.387.057-.01.113-.029.17-.04.667-.126,1.327-.281,1.979-.468.118-.034.233-.072.35-.108.678-.207,1.349-.435,2.004-.707.255-.106.51-.217.763-.334.009.03.023.058.033.088.034.103.076.202.113.305.122.344.256.683.404,1.016.063.141.129.279.196.417.146.303.304.599.472.89.071.124.139.249.214.37.246.399.506.789.79,1.161l.384.501.625-.083c1.979-.262,3.923-.964,5.62-2.028,1.416-.888,2.648-2.009,3.661-3.33.743-.969,1.357-2.035,1.826-3.167.186-.45.346-.906.484-1.367,0-.003.003-.006.003-.009.003.06.012.121.014.181.007.195,0,.389.001.583.002.457-.009.914-.039,1.369-.015.223-.034.445-.056.667-.046.45-.11.897-.187,1.344-.034.197-.062.396-.103.592-.13.634-.282,1.265-.475,1.89-.186.602-.397,1.188-.626,1.742-.66,1.595-1.526,3.095-2.572,4.461-3.023,3.943-7.529,6.634-12.44,7.45ZM49.368,68.214c-4.643-.772-8.924-3.218-11.932-6.815.035-.05.062-.105.097-.155.4-.578.774-1.173,1.118-1.787.061-.11.118-.221.177-.332.348-.647.673-1.306.955-1.987,0,0,0,0,0-.001.09-.217.177-.439.262-.664.024.012.05.021.074.033.089.044.181.079.271.121.326.152.656.292.993.419.14.053.28.1.421.149.308.105.618.198.932.282.136.036.271.075.408.107.442.103.886.192,1.335.251l.626.083.166-.217.217-.284c.455-.593.844-1.236,1.199-1.898.613-1.142,1.089-2.361,1.367-3.624.182-.827.289-1.662.319-2.5.016-.419.012-.838-.011-1.256-.023-.419-.065-.837-.126-1.255-.167-1.148-.477-2.275-.922-3.349-.19-.459-.404-.903-.638-1.334.027.025.058.047.086.072.113.105.218.219.329.326.349.339.687.688,1.009,1.051.14.158.276.32.411.483.288.347.562.705.826,1.072.114.16.233.317.343.48.354.525.69,1.064.995,1.628.002.004.004.007.006.01.324.6.621,1.223.882,1.852.639,1.543,1.081,3.163,1.313,4.814.7,4.979-.576,10.126-3.506,14.223ZM68.062,49.215c-3.802,2.718-8.526,4.019-13.163,3.628-.01-.056-.029-.11-.039-.166-.126-.667-.281-1.328-.468-1.98-.034-.118-.072-.234-.108-.351-.206-.677-.435-1.348-.707-2.003-.118-.284-.242-.568-.372-.849.023-.008.045-.018.068-.026.086-.029.168-.066.254-.097.342-.125.68-.262,1.013-.413.134-.061.264-.126.397-.191.292-.144.577-.297.857-.46.12-.069.24-.136.357-.209.384-.238.759-.489,1.115-.762,0,0,0,0,.001,0l.501-.384h0s-.083-.626-.083-.626c-.006-.045-.019-.089-.025-.133-.271-1.904-.912-3.705-1.918-5.352-.274-.448-.579-.871-.898-1.282-.689-.887-1.474-1.694-2.362-2.395-.444-.351-.918-.664-1.403-.958-.144-.088-.29-.17-.438-.253-.41-.229-.829-.438-1.258-.625-.076-.033-.146-.079-.223-.111-.029-.012-.059-.02-.088-.031-.248-.101-.502-.183-.755-.27-.175-.06-.348-.13-.525-.183h0c.07-.003.141-.014.211-.017.209-.007.417,0,.626,0,.457,0,.914.013,1.369.045.23.016.459.036.688.061.457.049.912.117,1.366.199.202.036.404.066.605.109.646.137,1.29.298,1.927.502h0c.557.178,1.07.365,1.567.571.827.343,1.627.739,2.395,1.186.768.447,1.504.945,2.203,1.49,3.865,3.017,6.506,7.485,7.313,12.337Z"/></svg>